<?xml version="1.0" encoding="utf-8"?>
<!-- Svg Vector Icons : http://www.onlinewebfonts.com/icon -->
<!DOCTYPE svg PUBLIC "-//W3C//DTD SVG 1.1//EN" "http://www.w3.org/Graphics/SVG/1.1/DTD/svg11.dtd">
<svg version="1.1" xmlns="http://www.w3.org/2000/svg" xmlns:xlink="http://www.w3.org/1999/xlink" x="0px" y="0px" viewBox="0 0 1000 1000" enable-background="new 0 0 1000 1000" xml:space="preserve">
<metadata> Svg Vector Icons : http://www.onlinewebfonts.com/icon </metadata>
<g><g transform="matrix(1 0 0 -1 0 1536)"><path d="M972.2,1508.2c20.5-24.2,23.3-58.7,8.4-103.5c-14.9-44.7-40.1-84.8-75.5-120.3l-112.6-112.6l111.9-486.7c2.3-8.9-0.5-16.5-8.4-23.1L806.5,595c-3.3-2.8-7.7-4.2-13.3-4.2c-1.9,0-3.5,0.2-4.9,0.7c-7,1.4-11.9,5.1-14.7,11.2L578.5,957.9L397.4,776.8l37.1-135.6c2.3-7.9,0.5-15.1-5.6-21.7l-67.1-67.1c-4.2-4.2-9.6-6.3-16.1-6.3h-1.4c-7,0.9-12.6,4-16.8,9.1L195.4,731.3L19.2,863.5c-5.1,3.3-8.2,8.6-9.1,16.1c-0.5,6.1,1.6,11.9,6.3,17.5l67.1,67.8c4.2,4.2,9.6,6.3,16.1,6.3c2.8,0,4.7-0.2,5.6-0.7l135.6-37.1l181.1,181.1L66.7,1309.6c-6.5,3.7-10.5,9.3-11.9,16.8c-0.9,7.5,1.2,13.8,6.3,18.9l89.5,89.5c6.5,6.1,13.5,7.9,21,5.6l465-111.2L748.4,1441c35.4,35.4,75.5,60.6,120.3,75.5C913.5,1531.5,947.9,1528.7,972.2,1508.2z"/></g></g>
</svg>